<?xml version="1.0" encoding="UTF-8" standalone="no"?>
<!-- Created with Inkscape (http://www.inkscape.org/) -->

<svg
   xmlns:dc="http://purl.org/dc/elements/1.1/"
   xmlns:cc="http://creativecommons.org/ns#"
   xmlns:rdf="http://www.w3.org/1999/02/22-rdf-syntax-ns#"
   xmlns:svg="http://www.w3.org/2000/svg"
   xmlns="http://www.w3.org/2000/svg"
   xmlns:sodipodi="http://sodipodi.sourceforge.net/DTD/sodipodi-0.dtd"
   xmlns:inkscape="http://www.inkscape.org/namespaces/inkscape"
   width="210mm"
   height="297mm"
   viewBox="0 0 744.09448819 1052.3622047"
   id="svg4152"
   version="1.1"
   inkscape:version="0.91 r13725"
   sodipodi:docname="drawing.svg"
   inkscape:export-filename="C:\dev\GoliathData\GoliathDataLogo.png"
   inkscape:export-xdpi="39.120998"
   inkscape:export-ydpi="39.120998">
  <title
     id="title4743">oracleDataLogo</title>
  <defs
     id="defs4154" />
  <sodipodi:namedview
     id="base"
     pagecolor="#ffffff"
     bordercolor="#666666"
     borderopacity="1.0"
     inkscape:pageopacity="0.0"
     inkscape:pageshadow="2"
     inkscape:zoom="0.40727392"
     inkscape:cx="315.72636"
     inkscape:cy="542.74913"
     inkscape:document-units="px"
     inkscape:current-layer="layer1"
     showgrid="false"
     inkscape:window-width="1920"
     inkscape:window-height="1137"
     inkscape:window-x="1672"
     inkscape:window-y="-8"
     inkscape:window-maximized="1" />
  <metadata
     id="metadata4157">
    <rdf:RDF>
      <cc:Work
         rdf:about="">
        <dc:format>image/svg+xml</dc:format>
        <dc:type
           rdf:resource="http://purl.org/dc/dcmitype/StillImage" />
        <dc:title>oracleDataLogo</dc:title>
      </cc:Work>
    </rdf:RDF>
  </metadata>
  <g
     inkscape:label="Layer 1"
     inkscape:groupmode="layer"
     id="layer1">
    <path
       inkscape:connector-curvature="0"
       id="path6"
       d="m 388.52331,404.87833 c 111.2971,0 201.8682,-19.38119 201.8682,-43.17375 0,-23.86495 -90.5216,-43.20995 -201.8682,-43.20995 -111.74222,0 -201.86813,19.345 -201.86813,43.20995 0,23.79256 90.12591,43.17375 201.86813,43.17375 z m 0,-74.34278 c 42.9854,0 77.9575,7.48496 77.9575,16.70545 0,9.1844 -34.9721,16.63307 -77.9575,16.63307 -43.1337,0 -77.95737,-7.44867 -77.95737,-16.63307 0,-9.22049 34.82367,-16.70545 77.95737,-16.70545 z m 0,0"
       style="fill:#483737;fill-opacity:1;fill-rule:nonzero;stroke:none" />
    <path
       inkscape:connector-curvature="0"
       id="path8"
       d="m 186.60572,365.37737 0,97.05064 c 0,55.28697 403.78579,57.42036 403.78579,0 l 0,-97.05064 c 0,57.45654 -403.78579,55.35935 -403.78579,0 z m 0,0"
       style="fill:#d4aa00;fill-opacity:1;fill-rule:nonzero;stroke:none" />
    <path
       inkscape:connector-curvature="0"
       id="path10"
       d="m 187.06107,467.69175 0,97.01445 c 0,55.35936 403.78579,57.45655 403.78579,0 l 0,-97.01445 c 0,57.45655 -403.78579,55.32316 -403.78579,0 z m 0,0"
       style="fill:#3771c8;fill-opacity:1;fill-rule:nonzero;stroke:none" />
    <path
       inkscape:connector-curvature="0"
       id="path12"
       d="m 187.06107,569.60838 0,97.01445 c 0,55.32325 403.78579,57.45655 403.78579,0 l 0,-97.01445 c 0,57.42044 -403.78579,55.32325 -403.78579,0 z m 0,0"
       style="fill:#89a02c;fill-opacity:1;fill-rule:nonzero;stroke:none" />
    <flowRoot
       xml:space="preserve"
       id="flowRoot4735"
       style="font-style:normal;font-variant:normal;font-weight:normal;font-stretch:condensed;font-size:50px;line-height:125%;font-family:'Gill Sans Ultra Bold Condensed';-inkscape-font-specification:'Gill Sans Ultra Bold Condensed, Condensed';text-align:start;letter-spacing:0px;word-spacing:0px;writing-mode:lr-tb;text-anchor:start;opacity:0.91000001;fill:#f9f9f9;fill-opacity:1;stroke:#464646;stroke-width:1px;stroke-linecap:butt;stroke-linejoin:miter;stroke-opacity:0.57911389"
       transform="matrix(9.1853568,0,0,5.8101911,-378.0958,-3835.6795)"><flowRegion
         id="flowRegion4737"><rect
           id="rect4739"
           width="321.875"
           height="309.375"
           x="68.75"
           y="724.23718"
           style="font-style:normal;font-variant:normal;font-weight:normal;font-stretch:condensed;font-size:50px;line-height:125%;font-family:'Gill Sans Ultra Bold Condensed';-inkscape-font-specification:'Gill Sans Ultra Bold Condensed, Condensed';text-align:start;writing-mode:lr-tb;text-anchor:start;fill:#f9f9f9;stroke:#464646;stroke-opacity:0.57911389" /></flowRegion><flowPara
         id="flowPara4741">G</flowPara></flowRoot>  </g>
</svg>
