<?xml version="1.0" encoding="UTF-8" standalone="no"?>
<svg
   xmlns:dc="http://purl.org/dc/elements/1.1/"
   xmlns:cc="http://creativecommons.org/ns#"
   xmlns:rdf="http://www.w3.org/1999/02/22-rdf-syntax-ns#"
   xmlns:svg="http://www.w3.org/2000/svg"
   xmlns="http://www.w3.org/2000/svg"
   xmlns:sodipodi="http://sodipodi.sourceforge.net/DTD/sodipodi-0.dtd"
   xmlns:inkscape="http://www.inkscape.org/namespaces/inkscape"
   width="128"
   height="128"
   viewBox="0 0 33.866666 33.866664"
   version="1.1"
   id="svg855"
   inkscape:version="1.0.2 (e86c870879, 2021-01-15, custom)"
   sodipodi:docname="goliath-logo-small.svg">
  <defs
     id="defs849" />
  <sodipodi:namedview
     id="base"
     pagecolor="#ffffff"
     bordercolor="#666666"
     borderopacity="1.0"
     inkscape:pageopacity="0.0"
     inkscape:pageshadow="2"
     inkscape:zoom="3.06"
     inkscape:cx="83.108698"
     inkscape:cy="63.965333"
     inkscape:document-units="px"
     inkscape:current-layer="layer1"
     inkscape:document-rotation="0"
     showgrid="false"
     units="px"
     inkscape:window-width="1267"
     inkscape:window-height="948"
     inkscape:window-x="109"
     inkscape:window-y="24"
     inkscape:window-maximized="0" />
  <metadata
     id="metadata852">
    <rdf:RDF>
      <cc:Work
         rdf:about="">
        <dc:format>image/svg+xml</dc:format>
        <dc:type
           rdf:resource="http://purl.org/dc/dcmitype/StillImage" />
        <dc:title></dc:title>
      </cc:Work>
    </rdf:RDF>
  </metadata>
  <g
     inkscape:label="Layer 1"
     inkscape:groupmode="layer"
     id="layer1">
    <g
       id="g847"
       transform="matrix(0.07203663,0,0,0.07747293,-11.185059,-22.418882)"
       inkscape:export-filename="C:\dev\Misc\GoliathUtilities\src\logo.png"
       inkscape:export-xdpi="107.28645"
       inkscape:export-ydpi="107.28645">
      <path
         inkscape:connector-curvature="0"
         id="path6"
         d="m 388.52331,404.87833 c 111.2971,0 201.8682,-19.38119 201.8682,-43.17375 0,-23.86495 -90.5216,-43.20995 -201.8682,-43.20995 -111.74222,0 -201.86813,19.345 -201.86813,43.20995 0,23.79256 90.12591,43.17375 201.86813,43.17375 z m 0,-74.34278 c 42.9854,0 77.9575,7.48496 77.9575,16.70545 0,9.1844 -34.9721,16.63307 -77.9575,16.63307 -43.1337,0 -77.95737,-7.44867 -77.95737,-16.63307 0,-9.22049 34.82367,-16.70545 77.95737,-16.70545 z m 0,0"
         style="fill:#483737;fill-opacity:1;fill-rule:nonzero;stroke:none" />
      <path
         inkscape:connector-curvature="0"
         id="path8"
         d="m 186.60572,365.37737 v 97.05064 c 0,55.28697 403.78579,57.42036 403.78579,0 v -97.05064 c 0,57.45654 -403.78579,55.35935 -403.78579,0 z m 0,0"
         style="fill:#ffd42a;fill-opacity:1;fill-rule:nonzero;stroke:none" />
      <path
         inkscape:connector-curvature="0"
         id="path10"
         d="m 187.06107,467.69175 v 97.01445 c 0,55.35936 403.78579,57.45655 403.78579,0 v -97.01445 c 0,57.45655 -403.78579,55.32316 -403.78579,0 z m 0,0"
         style="fill:#3771c8;fill-opacity:1;fill-rule:nonzero;stroke:none" />
      <path
         inkscape:connector-curvature="0"
         id="path12"
         d="m 187.06107,569.60838 v 97.01445 c 0,55.32325 403.78579,57.45655 403.78579,0 v -97.01445 c 0,57.42044 -403.78579,55.32325 -403.78579,0 z m 0,0"
         style="fill:#d35f5f;fill-opacity:1;fill-rule:nonzero;stroke:none" />
      <flowRoot
         xml:space="preserve"
         id="flowRoot4735"
         style="font-style:normal;font-variant:normal;font-weight:normal;font-stretch:condensed;line-height:0.01%;font-family:'Gill Sans Ultra Bold Condensed';-inkscape-font-specification:'Gill Sans Ultra Bold Condensed, Condensed';text-align:start;letter-spacing:0px;word-spacing:0px;writing-mode:lr-tb;text-anchor:start;opacity:0.91;fill:#f9f9f9;fill-opacity:1;stroke:#464646;stroke-width:1.50043;stroke-linecap:butt;stroke-linejoin:miter;stroke-miterlimit:4;stroke-dasharray:none;stroke-opacity:0.958823"
         transform="matrix(9.1853568,0,0,5.8101911,-378.0958,-3835.6795)"><flowRegion
           id="flowRegion4737"
           style="stroke:#464646;stroke-width:1.50043;stroke-miterlimit:4;stroke-dasharray:none;stroke-opacity:0.958823"><rect
             id="rect4739"
             width="321.875"
             height="309.375"
             x="68.75"
             y="724.23718"
             style="font-style:normal;font-variant:normal;font-weight:normal;font-stretch:condensed;font-size:50px;line-height:125%;font-family:'Gill Sans Ultra Bold Condensed';-inkscape-font-specification:'Gill Sans Ultra Bold Condensed, Condensed';text-align:start;writing-mode:lr-tb;text-anchor:start;fill:#f9f9f9;stroke:#464646;stroke-opacity:0.95882344;stroke-width:1.50043387;stroke-miterlimit:4;stroke-dasharray:none" /></flowRegion><flowPara
           id="flowPara4741"
           style="font-size:50px;line-height:1.25;stroke:#464646;stroke-width:1.50043;stroke-miterlimit:4;stroke-dasharray:none;stroke-opacity:0.958823">G</flowPara></flowRoot>
    </g>
  </g>
</svg>
